<svg id="a9070acb-b68b-41b4-939c-ee45892e4419" data-name="marks" xmlns="http://www.w3.org/2000/svg" viewBox="0 0 3000 3000"><defs><style>.b2c2f3ae-1f3c-4e04-81b2-1cd36b32d8c2{fill:#fff;}</style></defs><path class="b2c2f3ae-1f3c-4e04-81b2-1cd36b32d8c2" d="M610.54,2042.24c7.79-9.32-10.15,12,0,0Z"/><path class="b2c2f3ae-1f3c-4e04-81b2-1cd36b32d8c2" d="M1179,1218.56c-25.2-53.53-87.6-117.3-242-117.3-182.89,0-378.82,108.11-520.78,186.49-26.77,14.41-74.27,40-97.55,50.42-5.49,2.6-14.53,1.64-18.79-2-2.91-2.49-5.53-8.19-5.18-12a290.42,290.42,0,0,1,20.39-83.28c47.16-118.63,176.27-239.71,373.38-350.1,148.23-83,287.26-133.24,303-138.78,18.53-6.32,33-19.11,40.78-36a61.68,61.68,0,0,0,1.23-49.16c-13.72-33.93-54.75-51.38-91.42-38.93C920.54,635.38,726,704,535.39,824.79c-111.71,70.83-200.68,146.08-264.31,223.58-79.51,96.71-119.8,197.5-119.8,299.51,0,61,21,102.89,62.59,124.55C289.12,1511.7,381,1461,508.14,1390.87l.63-.35c126.67-70,284.27-157.11,428.24-157.11,87.25,0,118.23,50.25,118.23,93.29,0,191.32-315.68,563.43-444.7,715.54-250,297.5-529.46,579.51-580.25,629.8l-1.12,1.13c-13.09,12.84-20,29.65-19.47,47.35s8.58,34.27,22.6,46.42a74.11,74.11,0,0,0,48.58,17.75,73.72,73.72,0,0,0,51.72-20.64c2.74-2.69,299-294.12,576.22-623.87C957.55,1844.25,1277,1426.7,1179,1218.56Z"/><path class="b2c2f3ae-1f3c-4e04-81b2-1cd36b32d8c2" d="M2988.92,2387.24c-1.42,17.5-10.15,33.38-24.61,44.75a73.22,73.22,0,0,1-45.19,15.35c-20.44,0-39.86-8.29-53.19-22.65-20-21.72-492.55-544.81-583.19-1692.6-.09-1.37-1.52-1.62-2.1-1.66s-2.16-.06-2.5,1.46c-7.31,31.23-14.41,62-21,90.79-109.37,475.44-154.17,629.12-266,629.12-62.7,0-110.3-46.47-149.86-146.28-35.78-90.19-66.81-224.9-103.87-450.44-.25-1.47-1.86-1.62-2.35-1.62s-2,.1-2.21,1.43c-71.91,360.53-177.11,985.88-249.51,1445.73-5.59,35.44-41.08,60-79.26,54.8-19.22-2.54-36.57-12.5-47.6-27.3a61.1,61.1,0,0,1-11.67-46.28c.69-4.16,70.1-445,146.62-885.48,44.75-257.8,82.8-463,113.09-610,18.23-88.39,33.92-157,46.66-204,16.67-61.52,33.88-125.1,98.78-125.1,63.92,0,74.17,57,82.35,102.79,5.74,31.91,12.75,78,20.1,126.77,17.11,113,40.59,267.65,70.25,399.26,25,110.79,46.86,170.15,60.83,200.44a2.38,2.38,0,0,0,2.25,1.23,2.47,2.47,0,0,0,2.16-1.28c43-102.74,96.77-336.22,132.3-490.68,94-408.68,122.9-517,217.56-517h1.41c37.8.44,68.58,30.49,68.58,67,.59,1369.46,558.88,1988.43,564.51,1994.56A61.6,61.6,0,0,1,2988.92,2387.24Z"/></svg>