<svg id="b5e7911a-1699-41b3-a7d0-ac2b02a5e379" data-name="marks" xmlns="http://www.w3.org/2000/svg" viewBox="0 0 3000 3000"><defs><style>.b3b774ab-effe-4712-bfd2-d54b5fb566a3{fill:#fff;}</style></defs><path class="b3b774ab-effe-4712-bfd2-d54b5fb566a3" d="M2980.79,2209.32a70.47,70.47,0,0,0-93-35.3c-4.22,1.87-103.83,45.69-183.78,45.69-63.43,0-90.49-24.85-105.29-43.53-117.75-148.43-3.14-638.38,89-1032.26,64.12-274.21,124.7-533.28,124.7-713A70.45,70.45,0,0,0,2742,360.54c-83.48,0-217.4,49.9-422.45,473.14,40.79-219.71,39.27-318.87-4-372.65-19.85-24.7-48.14-38.33-79.56-38.33-126.81,0-248.23,115.05-361.17,342.06,54.9-299.51,50.78-316.42,23.67-349.17a72.93,72.93,0,0,0-56.27-26.52c-37.89,0-89.8,0-348.73,377-148.48,216.18-325,499.32-484.31,776.77-43.43,75.68-85.34,150.49-124.61,222.35-27.89-.3-56-.39-83.23-.49h-6c-387.6-1.18-641.67-19.12-641.67-248.38,0-209,446.77-600.93,728.38-798.88a70.37,70.37,0,1,0-80.93-115.14c-80.64,56.66-788.19,563.92-788.19,914,0,386.71,433.58,388,782,389.11l14.51,0c-77.7,147.9-142.6,281.38-192.9,396.82-151.71,348.13-135.34,454.11-104.16,507.59,22.3,38.14,60,59.12,106.08,59.12h1c191.92,0,449.22-239.36,523.53-312.69,151.62-149.71,313.68-360,313.68-501.13,0-225.34-219.85-271-414.56-284.46,31.91-57.5,65.39-116.72,99.66-176.13,217.6-377.55,455.54-746.32,611.27-948-14.85,85.15-34.9,191.67-54.41,295.15-86.32,458-216.81,1150.1-216.91,1566.27v.49a70.37,70.37,0,0,0,140.73,0V2508c.1-308.13,84.37-808.38,205-1216.57,67.31-227.89,139.46-408.92,214.32-538,58.38-100.63,117.3-165.73,166.71-184.51,8.14,93.39-51.08,362.31-86.81,524.42-40.15,182.45-74.85,340-74.85,429.11a70.47,70.47,0,0,0,86,68.68c38.43-8.73,45.68-29.07,67.15-89.56,35-98.63,128-360.59,239.86-593.43C2541,697.7,2616.18,597.55,2663.83,550c-18,155-64.32,352.9-113.24,562.06-109.21,467-222.15,949.85-62.16,1151.57,51,64.22,123.48,96.81,215.59,96.81,111.82,0,236.33-55.73,241.57-58.13A70.48,70.48,0,0,0,2980.79,2209.32ZM1316,2055.2c0,65.88-93.39,224.8-271.82,401-155.68,153.68-320.1,261.86-412,271.42-2.35-32.5,7.45-129,120.15-384.51C807.65,2217.7,880,2071.28,967.46,1907.9,1182.7,1915.1,1316,1942.5,1316,2055.2Z"/></svg>