<svg width="1470" height="484" viewBox="0 0 1470 484" fill="none" xmlns="http://www.w3.org/2000/svg">
<g clip-path="url(#clip0_397_646)">
<path d="M-28.6533 389.091V96.0909H88.6611C110.216 96.0909 128.195 99.286 142.597 105.676C156.999 112.067 167.825 120.937 175.073 132.287C182.322 143.541 185.946 156.513 185.946 171.201C185.946 182.646 183.657 192.708 179.079 201.388C174.501 209.972 168.206 217.03 160.194 222.562C152.278 227.998 143.217 231.861 133.012 234.15V237.011C144.171 237.488 154.615 240.636 164.343 246.454C174.167 252.272 182.131 260.426 188.235 270.918C194.34 281.314 197.392 293.713 197.392 308.115C197.392 323.662 193.529 337.539 185.803 349.748C178.173 361.861 166.871 371.446 151.896 378.504C136.922 385.562 118.467 389.091 96.5298 389.091H-28.6533ZM33.2944 338.445H83.7969C101.06 338.445 113.65 335.155 121.566 328.574C129.483 321.897 133.441 313.027 133.441 301.963C133.441 293.856 131.486 286.703 127.575 280.503C123.665 274.304 118.085 269.44 110.836 265.911C103.683 262.382 95.1468 260.617 85.2275 260.617H33.2944V338.445ZM33.2944 218.699H79.2187C87.7074 218.699 95.2422 217.22 101.823 214.264C108.5 211.212 113.745 206.92 117.561 201.388C121.471 195.856 123.426 189.227 123.426 181.502C123.426 170.915 119.659 162.378 112.124 155.893C104.685 149.407 94.0976 146.164 80.3633 146.164H33.2944V218.699Z" fill="#002855"/>
<path d="M302.161 389.091V96.0909H417.758C439.886 96.0909 458.771 100.049 474.412 107.965C490.15 115.786 502.12 126.898 510.322 141.3C518.62 155.607 522.769 172.441 522.769 191.802C522.769 211.259 518.572 227.998 510.179 242.019C501.786 255.944 489.625 266.626 473.697 274.065C457.864 281.505 438.694 285.225 416.184 285.225H338.786V235.438H406.17C417.997 235.438 427.82 233.816 435.641 230.573C443.462 227.33 449.28 222.466 453.096 215.981C457.006 209.495 458.961 201.435 458.961 191.802C458.961 182.074 457.006 173.871 453.096 167.195C449.28 160.518 443.415 155.463 435.498 152.03C427.677 148.501 417.806 146.736 405.884 146.736H364.108V389.091H302.161ZM460.392 255.753L533.213 389.091H464.827L393.58 255.753H460.392Z" fill="#002855"/>
<path d="M631.007 389.091V96.0909H828.439V147.166H692.955V216.982H818.281V268.057H692.955V338.016H829.011V389.091H631.007Z" fill="#002855"/>
<path d="M992.652 389.091H926.269L1027.42 96.0909H1107.25L1208.25 389.091H1141.87L1068.48 163.046H1066.19L992.652 389.091ZM988.503 273.922H1145.3V322.279H988.503V273.922Z" fill="#002855"/>
<path d="M1307.98 389.091V96.0909H1369.93V225.28H1373.79L1479.23 96.0909H1553.48L1444.75 227.283L1554.77 389.091H1480.66L1400.4 268.629L1369.93 305.826V389.091H1307.98Z" fill="#002855"/>
</g>
<defs>
<clipPath id="clip0_397_646">
<rect width="1470" height="484" fill="white"/>
</clipPath>
</defs>
</svg>
