<svg width="1470" height="293" viewBox="0 0 1470 293" fill="none" xmlns="http://www.w3.org/2000/svg">
<g clip-path="url(#clip0_397_646)">
<path d="M-28.6533 293V0H88.6611C110.216 0 128.195 3.19515 142.597 9.58545C156.999 15.9758 167.825 24.8459 175.073 36.1958C182.322 47.4504 185.946 60.4217 185.946 75.1099C185.946 86.5552 183.657 96.6175 179.079 105.297C174.501 113.881 168.206 120.939 160.194 126.471C152.278 131.907 143.217 135.77 133.012 138.059V140.92C144.171 141.397 154.615 144.545 164.343 150.363C174.167 156.181 182.131 164.336 188.235 174.827C194.34 185.223 197.392 197.622 197.392 212.024C197.392 227.571 193.529 241.448 185.803 253.657C178.173 265.77 166.871 275.355 151.896 282.413C136.922 289.471 118.467 293 96.5298 293H-28.6533ZM33.2944 242.354H83.7969C101.06 242.354 113.65 239.064 121.566 232.483C129.483 225.806 133.441 216.936 133.441 205.873C133.441 197.765 131.486 190.612 127.575 184.413C123.665 178.213 118.085 173.349 110.836 169.82C103.683 166.291 95.1468 164.526 85.2275 164.526H33.2944V242.354ZM33.2944 122.608H79.2187C87.7074 122.608 95.2422 121.13 101.823 118.173C108.5 115.121 113.745 110.829 117.561 105.297C121.471 99.765 123.426 93.1362 123.426 85.4106C123.426 74.8237 119.659 66.2874 112.124 59.8017C104.685 53.3161 94.0976 50.0732 80.3633 50.0732H33.2944V122.608Z" fill="#002855"/>
<path d="M302.161 293V0H417.758C439.886 0 458.771 3.95818 474.412 11.8745C490.15 19.6955 502.12 30.807 510.322 45.209C518.62 59.5156 522.769 76.3498 522.769 95.7114C522.769 115.168 518.572 131.907 510.179 145.928C501.786 159.853 489.625 170.535 473.697 177.975C457.864 185.414 438.694 189.134 416.184 189.134H338.786V139.347H406.17C417.997 139.347 427.82 137.725 435.641 134.482C443.462 131.24 449.28 126.375 453.096 119.89C457.006 113.404 458.961 105.345 458.961 95.7114C458.961 85.9829 457.006 77.7804 453.096 71.104C449.28 64.4276 443.415 59.3726 435.498 55.939C427.677 52.41 417.806 50.6455 405.884 50.6455H364.108V293H302.161ZM460.392 159.662L533.213 293H464.827L393.58 159.662H460.392Z" fill="#002855"/>
<path d="M631.007 293V0H828.439V51.0747H692.955V120.891H818.281V171.966H692.955V241.925H829.011V293H631.007Z" fill="#002855"/>
<path d="M992.652 293H926.269L1027.42 0H1107.25L1208.25 293H1141.87L1068.48 66.9551H1066.19L992.652 293ZM988.503 177.832H1145.3V226.188H988.503V177.832Z" fill="#002855"/>
<path d="M1307.98 293V0H1369.93V129.189H1373.79L1479.23 0H1553.48L1444.75 131.192L1554.77 293H1480.66L1400.4 172.538L1369.93 209.735V293H1307.98Z" fill="#002855"/>
</g>
<defs>
<clipPath id="clip0_397_646">
<rect width="1470" height="293" fill="white"/>
</clipPath>
</defs>
</svg>
