<svg width="1470" height="484" viewBox="0 0 1470 484" fill="none" xmlns="http://www.w3.org/2000/svg">
<g clip-path="url(#clip0_397_646)">
<path d="M-28.6533 387V96.0909H87.824C109.225 96.0909 127.076 99.2632 141.375 105.608C155.674 111.953 166.422 120.759 173.619 132.028C180.816 143.203 184.415 156.081 184.415 170.665C184.415 182.028 182.142 192.019 177.597 200.636C173.051 209.159 166.801 216.167 158.847 221.659C150.987 227.057 141.991 230.892 131.858 233.165V236.006C142.938 236.479 153.307 239.604 162.966 245.381C172.72 251.157 180.627 259.254 186.688 269.67C192.748 279.992 195.779 292.303 195.779 306.602C195.779 322.038 191.943 335.816 184.273 347.938C176.697 359.964 165.475 369.481 150.608 376.489C135.741 383.496 117.417 387 95.6365 387H-28.6533ZM32.8524 336.716H82.9944C100.135 336.716 112.635 333.449 120.494 326.915C128.354 320.286 132.284 311.479 132.284 300.494C132.284 292.445 130.343 285.343 126.46 279.188C122.578 273.032 117.038 268.203 109.841 264.699C102.739 261.195 94.2634 259.443 84.4149 259.443H32.8524V336.716ZM32.8524 217.824H78.449C86.877 217.824 94.358 216.356 100.892 213.42C107.521 210.39 112.729 206.129 116.517 200.636C120.4 195.144 122.341 188.562 122.341 180.892C122.341 170.381 118.6 161.905 111.119 155.466C103.733 149.026 93.2217 145.807 79.5853 145.807H32.8524V217.824Z" fill="#002855"/>
<path d="M299.8 387V96.0909H414.573C436.542 96.0909 455.292 100.021 470.823 107.881C486.448 115.646 498.332 126.678 506.476 140.977C514.715 155.182 518.834 171.896 518.834 191.119C518.834 210.437 514.667 227.057 506.334 240.977C498.001 254.803 485.927 265.409 470.112 272.795C454.393 280.182 435.359 283.875 413.01 283.875H336.163V234.443H403.067C414.809 234.443 424.563 232.833 432.328 229.614C440.093 226.394 445.87 221.564 449.658 215.125C453.54 208.686 455.482 200.684 455.482 191.119C455.482 181.46 453.54 173.316 449.658 166.688C445.87 160.059 440.046 155.04 432.186 151.631C424.421 148.127 414.62 146.375 402.783 146.375H361.305V387H299.8ZM456.902 254.614L529.203 387H461.306L390.567 254.614H456.902Z" fill="#002855"/>
<path d="M626.3 387V96.0909H822.323V146.801H687.805V216.119H812.237V266.83H687.805V336.29H822.891V387H626.3Z" fill="#002855"/>
<path d="M985.364 387H919.455L1019.88 96.0909H1099.14L1199.43 387H1133.52L1060.65 162.568H1058.38L985.364 387ZM981.244 272.653H1136.93V320.665H981.244V272.653Z" fill="#002855"/>
<path d="M1298.44 387V96.0909H1359.95V224.358H1363.78L1468.47 96.0909H1542.19L1434.24 226.347L1543.47 387H1469.89L1390.2 267.398L1359.95 304.33V387H1298.44Z" fill="#002855"/>
</g>
<defs>
<clipPath id="clip0_397_646">
<rect width="1470" height="484" fill="white"/>
</clipPath>
</defs>
</svg>
