<svg id="a04c6dab-aabe-4bea-a1d1-588efa09b4a7" data-name="marks" xmlns="http://www.w3.org/2000/svg" viewBox="0 0 3000 3000"><defs><style>.abef8bca-369e-434f-822a-6e625b978724{fill:#fff;}</style></defs><path class="abef8bca-369e-434f-822a-6e625b978724" d="M673.25,2752.28c-48.42,0-88.23-19.13-111.66-54-33.57-49.91-50.9-149.4,114.49-478.64,62.22-123.86,138.3-256.81,214.85-383l-.52-.76c-383.28-1.18-875.65,5.29-875.65-365.47,0-330.66,773.6-811.72,861.8-865.48,34.28-20.87,82.25-12.16,103.62,20,18.83,28.36,7,64.78-23.8,83.63-309.73,189.33-798,561.93-798,761.83,0,222.29,280.61,239.66,708.74,240.78,33.22.09,66.9.18,100.57.53a.71.71,0,0,0,.61-.32c48.95-77.8,96.15-150.46,138-213.65,174.52-263.68,367.92-532.78,530.61-738.28,281.9-356.11,337.37-356.51,377.72-356.51,22.7,0,44.14,8.94,58.45,24.23,29.87,31.9,30,56-38,343.78-1.42,6,8.22,8.79,11.24,3.24,103.63-190.53,225.2-339.22,352.25-339.22,34,0,64.59,12.35,86,34.78,49.86,52.15,44.58,146,8.8,327.82-1.23,6.25,8.87,8.76,11.76,2.94,139.72-280.82,274.53-420.22,409.69-424.56,11.94-.38,24.11.68,35,4.91,31.1,12,47.06,39.44,42.57,66.25,0,6.18-207.54,1243.46-208.55,1624.91-.09,32.63-27.54,61.85-65,64.85-42.74,3.43-78.66-25.66-78.66-62,0-301.54,122.24-1100.68,180.34-1463.5,2.45-15.26-20.38-23-30.57-10.41-63.19,78.3-142.43,210.12-231.65,421.38-126.76,300.17-204.35,733.5-204.35,794,0,36.22-35.6,65.21-78.1,62.08-37.56-2.77-65.6-32-65.54-64.73.43-243.18,59.24-652.84,106.53-870.9,23.51-108.41,51-234.93,58.92-316.93,2.28-23.53-31.73-35.94-49.18-17.8-73.49,76.39-186.77,251.13-312,579.85-149.38,392-245.92,818.7-246,1087.18h0c0,26.52-18.77,51.13-47.83,59.33-49.83,14.05-95.82-17.78-95.82-58.93v-.42c.11-402.92,146.39-1014.4,243.21-1419.07,14-58.41,28.11-117.51,40.55-171.18,3-13.15-16.6-20.74-25.85-10-149,172.9-383.71,481.21-640.47,867.7q-58.89,88.62-112.86,173.23c-.22.33,0,.74.49.76,246.37,14,456.82,66.19,456.82,266.31,0,132.84-176.79,331.61-342.24,473.32-81.08,69.44-361.82,296-570.13,296Zm379.83-914.09a.71.71,0,0,0-.64.31c-95.77,155.18-176.14,296.09-237.29,416.36-87.88,172.83-118.74,269.78-128.43,322.57-4.82,26.25,24,47.77,53,39.31,105-30.57,256.68-123.12,403.87-249.18,196.64-168.43,299.52-321,299.52-384.64C1443.14,1872.65,1299.37,1845.14,1053.08,1838.19Z"/></svg>