<svg id="ba8ae9b1-389e-46d9-861b-6e9fdb5589b9" data-name="marks" xmlns="http://www.w3.org/2000/svg" viewBox="0 0 3000 3000"><defs><style>.a02af83a-04c4-4b1a-b44d-b5245180aef9{fill:#fff;}</style></defs><path class="a02af83a-04c4-4b1a-b44d-b5245180aef9" d="M2960.26,2571.12a71.24,71.24,0,0,1-131.42-7.45L2233.69,860.54l-173.48,505.19a71.26,71.26,0,0,1-127.94,14.41L1603.55,849.36,1938.1,2204.21a71.24,71.24,0,0,1-138.33,34.17l-443-1794a71.24,71.24,0,0,1,129.71-54.61l487.79,787.55L2165.7,619.8a71.25,71.25,0,0,1,134.66-.39l663,1897.3A70.67,70.67,0,0,1,2960.26,2571.12Z"/><path class="a02af83a-04c4-4b1a-b44d-b5245180aef9" d="M920.21,2107.45C669.82,2375.83,391.1,2606.52,388.3,2608.77a71.22,71.22,0,1,1-90.68-109.85c241.66-199.66,485.09-438.82,651.12-639.76,197.8-239.36,277.9-413.57,225.49-490.49-51.27-75.34-303.38,28.58-487.45,104.46-132.4,54.61-269.21,111-383.82,130C168.3,1625.54,81.73,1592.79,38.25,1503c-84-173.29,19-409.22,305.88-701.18C545,597.45,762.17,439.65,771.29,433a71.24,71.24,0,1,1,83.58,115.39C668,683.82,478.89,855.24,349.13,1007c-164.06,191.86-227.2,341.91-182.64,433.92,37.4,77.21,295.29-29.12,465.93-99.46,267.06-110.1,543.19-223.92,659.61-53C1403.4,1452.11,1281.83,1720,920.21,2107.45Z"/></svg>