<svg id="b30c9804-89e7-4ffd-8637-8ed05e5b70d4" data-name="marks" xmlns="http://www.w3.org/2000/svg" viewBox="0 0 3000 3000"><defs><style>.ba968ba3-c264-4540-9bb2-1c0d60b8d9eb{fill:#fff;}</style></defs><path class="ba968ba3-c264-4540-9bb2-1c0d60b8d9eb" d="M2997.33,2023.21a67,67,0,0,1-31.88,40.2c-7.48,4.16-76.68,40.68-208.07,40.68-472.51,0-640.92-620.87-741.56-991.87-15.26-56.14-32.22-118.78-47.77-166.89-13,29-26.7,61-39,89.87l-.49,1.13c-97.65,228.36-135.06,302.15-204.11,302.15-104.15,0-141.51-141.81-209.63-436.77-15.8-68.32-36.63-158.68-56.67-225.87-48.37,218.73-111.25,766.45-155.31,1357.74-2.69,36.68-34.87,64.3-71.59,61.66a66.79,66.79,0,0,1-61.66-71.58c.24-3.53,28.21-378.05,68.75-751.54,23.77-219.12,47.09-393.88,69.29-519.56,39.61-224.45,71.49-289.33,142.2-289.33,96.77,0,129.78,125.23,195.21,408.4,20.63,89.34,51.1,221.27,78.58,294,26.31-51.5,59.46-129,82.05-181.86,77-180,100.25-234.33,161.22-234.33,89.05,0,116.87,102.74,177.9,327.73,90.61,334.13,242.25,893.29,612.61,893.29,95.06,0,143.38-24,143.87-24.25a65.23,65.23,0,0,1,50.36-5.72,66.77,66.77,0,0,1,45.72,82.68Z"/><path class="ba968ba3-c264-4540-9bb2-1c0d60b8d9eb" d="M1040.91,1451.63c0,549.09-880.28,1301.51-917.74,1333.24a71.71,71.71,0,0,1-92.86-109.29c2.2-1.86,223.57-190.85,439.7-437.7,279.66-319.36,427.53-591.24,427.53-786.25,0-53.3-10.71-89.44-30.95-104.5-52.13-38.58-205.13,7.92-316.82,41.86l-.68.2c-159.27,48.26-309.74,93.88-407.48,21.46-50.18-37.21-75.65-98-75.65-180.78,0-115.5,105.38-288.8,313.2-515.15,159.9-174.09,330.07-323.47,362.59-351.64a71.65,71.65,0,1,1,93.84,108.31c-212,183.77-567.73,541.81-619.85,720.14l-.44,1.28c-7,22.68-4.06,48.75,8.36,73.39,34.23,67.93,140.85,27.12,194.75,11.53l205.16-59.32c59-17.07,121.69-29.66,183.58-29.22C858.44,1189.55,910.2,1201,952,1232,1011,1275.84,1040.91,1349.72,1040.91,1451.63Z"/></svg>